<svg width="64" height="64" viewBox="0 0 64 64" fill="none" xmlns="http://www.w3.org/2000/svg">
<path d="M32 0C14.3261 0 0 14.3271 0 32C0 49.6739 14.3261 64 32 64C49.6739 64 64 49.6739 64 32C64 14.3271 49.6739 0 32 0ZM52.7422 52.7422C50.047 55.4356 46.9103 57.5527 43.4161 59.0294C39.8029 60.5586 35.961 61.3341 32.0001 61.3341C28.0393 61.3341 24.1974 60.5587 20.5821 59.0294C17.0899 57.5529 13.9533 55.4356 11.2579 52.7422C8.56263 50.047 6.44737 46.9103 4.97075 43.4161C3.44137 39.8028 2.666 35.961 2.666 32C2.666 28.039 3.44137 24.1973 4.97075 20.583C6.44725 17.0908 8.5625 13.9531 11.2579 11.2577C13.9531 8.56337 17.0899 6.44812 20.5821 4.97062C24.1974 3.44225 28.0391 2.66687 32.0001 2.66687C35.9611 2.66687 39.8029 3.44225 43.4161 4.97062C46.9103 6.44812 50.047 8.56337 52.7422 11.2577C55.4356 13.953 57.5527 17.0908 59.0294 20.583C60.5586 24.1973 61.3341 28.039 61.3341 32C61.3341 35.961 60.5587 39.8028 59.0294 43.416C57.5527 46.9101 55.4355 50.0469 52.7422 52.7422Z" fill="#12373F"/>
<path d="M45.334 38.666C43.123 38.666 41.334 40.459 41.334 42.666C41.334 44.877 43.123 46.666 45.334 46.666C47.543 46.666 49.334 44.877 49.334 42.666C49.334 40.459 47.543 38.666 45.334 38.666ZM45.334 44C44.5976 44 44 43.4004 44 42.666C44 41.9316 44.5976 41.334 45.334 41.334C46.0684 41.334 46.666 41.9316 46.666 42.666C46.666 43.4004 46.0684 44 45.334 44Z" fill="#12373F"/>
<path d="M29.334 17.333C31.543 17.333 33.334 15.543 33.334 13.333C33.334 11.124 31.543 9.33301 29.334 9.33301C27.123 9.33301 25.334 11.124 25.334 13.333C25.334 15.543 27.123 17.333 29.334 17.333ZM29.334 12C30.0684 12 30.666 12.5986 30.666 13.333C30.666 14.0684 30.0684 14.667 29.334 14.667C28.5976 14.667 28 14.0684 28 13.333C28 12.5986 28.5976 12 29.334 12Z" fill="#12373F"/>
<path d="M45.334 18.667C42.3886 18.667 40 21.0547 40 24C40 26.9452 42.3886 29.333 45.334 29.333C48.2794 29.333 50.666 26.9452 50.666 24C50.666 21.0547 48.2792 18.667 45.334 18.667ZM45.334 26.667C43.8632 26.667 42.666 25.4707 42.666 24C42.666 22.5292 43.8632 21.333 45.334 21.333C46.8027 21.333 48 22.5292 48 24C48 25.4707 46.8027 26.667 45.334 26.667Z" fill="#12373F"/>
<path d="M29.334 45.334C26.3887 45.334 24 47.7208 24 50.666C24 53.6113 26.3886 56 29.334 56C32.2794 56 34.666 53.6114 34.666 50.666C34.666 47.7206 32.2792 45.334 29.334 45.334ZM29.334 53.334C27.8632 53.334 26.666 52.1368 26.666 50.666C26.666 49.1973 27.8632 48 29.334 48C30.8027 48 32 49.1973 32 50.666C32 52.1368 30.8027 53.334 29.334 53.334Z" fill="#12373F"/>
<path d="M17.3261 22.667C12.1719 22.667 7.99414 26.8457 7.99414 32C7.99414 37.1542 12.1719 41.334 17.3261 41.334C22.4824 41.334 26.6601 37.1542 26.6601 32C26.6601 26.8457 22.4824 22.667 17.3261 22.667ZM17.3261 38.666C13.6504 38.666 10.6601 35.6757 10.6601 32C10.6601 28.3242 13.6504 25.333 17.3261 25.333C21.0039 25.333 23.9941 28.3242 23.9941 32C23.9941 35.6757 21.0039 38.666 17.3261 38.666Z" fill="#12373F"/>
</svg>
