<svg width="64" height="64" viewBox="0 0 64 64" fill="none" xmlns="http://www.w3.org/2000/svg">
<path d="M31.7722 15.8292C40.8825 15.8292 47.7152 23.1174 47.7152 31.7723C47.7152 40.8826 40.427 47.7153 31.7722 47.7153C22.6618 47.7153 15.8291 40.4271 15.8291 31.7723C15.8291 22.6619 23.1174 15.8292 31.7722 15.8292ZM31.7722 18.5623C24.4839 18.5623 18.5622 24.484 18.5622 31.7723C18.5622 39.0605 24.4839 44.9822 31.7722 44.9822C39.0604 44.9822 44.9821 39.0605 44.9821 31.7723C44.9821 24.484 39.0604 18.5623 31.7722 18.5623Z" fill="#FFE600"/>
<path fill-rule="evenodd" clip-rule="evenodd" d="M33.5944 1.70819V11.274C33.5944 13.5516 30.4058 13.5516 30.4058 11.274V1.70819C30.4058 -0.569395 33.5944 -0.569395 33.5944 1.70819Z" fill="#FFE600"/>
<path fill-rule="evenodd" clip-rule="evenodd" d="M11.7297 9.45195L18.5625 16.2847C19.929 17.6512 17.6514 19.9288 16.2849 18.5623L9.45214 11.7295C8.08559 10.363 10.3632 8.0854 11.7297 9.45195Z" fill="#FFE600"/>
<path fill-rule="evenodd" clip-rule="evenodd" d="M1.70819 30.4057H11.274C13.5516 30.4057 13.5516 33.5943 11.274 33.5943H1.70819C-0.569395 33.5943 -0.569395 30.4057 1.70819 30.4057Z" fill="#FFE600"/>
<path fill-rule="evenodd" clip-rule="evenodd" d="M9.45214 52.2705L16.2849 45.4377C17.6514 44.0712 19.929 46.3488 18.5625 47.7153L11.7297 54.5481C10.3632 55.9146 8.08559 53.637 9.45214 52.2705Z" fill="#FFE600"/>
<path fill-rule="evenodd" clip-rule="evenodd" d="M30.4058 62.2918V52.726C30.4058 50.4484 33.5944 50.4484 33.5944 52.726V62.2918C33.5944 64.5694 30.4058 64.5694 30.4058 62.2918Z" fill="#FFE600"/>
<path fill-rule="evenodd" clip-rule="evenodd" d="M52.2707 54.5481L45.438 47.7153C44.0714 46.3488 46.349 44.0712 47.7156 45.4377L54.5483 52.2705C55.9148 53.637 53.6373 55.9146 52.2707 54.5481Z" fill="#FFE600"/>
<path fill-rule="evenodd" clip-rule="evenodd" d="M62.2916 33.5943H52.7258C50.4482 33.5943 50.4482 30.4057 52.7258 30.4057H62.2916C64.5692 30.4057 64.5692 33.5943 62.2916 33.5943Z" fill="#FFE600"/>
<path fill-rule="evenodd" clip-rule="evenodd" d="M54.5483 11.7295L47.7156 18.5623C46.349 19.9288 44.0714 17.6512 45.438 16.2847L52.2707 9.45195C53.6373 8.0854 55.9148 10.363 54.5483 11.7295Z" fill="#FFE600"/>
</svg>
